<?xml version="1.0" encoding="UTF-8"?>
<svg width="13px" height="17px" viewBox="0 0 13 17" version="1.1" xmlns="http://www.w3.org/2000/svg" xmlns:xlink="http://www.w3.org/1999/xlink">
    <!-- Generator: Sketch 46 (44423) - http://www.bohemiancoding.com/sketch -->
    <title>006-FIle</title>
    <desc>Created with Sketch.</desc>
    <defs></defs>
    <g id="Page-1" stroke="none" stroke-width="1" fill="none" fill-rule="evenodd">
        <g id="Send-attachment-(file)-button" transform="translate(-79.000000, -27.000000)" fill="#FFFFFF">
            <g id="Button" transform="translate(0.000000, 16.000000)">
                <g id="006-FIle" transform="translate(79.000000, 11.000000)">
                    <g id="Layer_1">
                        <path d="M12.7844501,2.97973196 L9.78301832,0.12828866 C9.69649355,0.0460927835 9.57934381,-1.77635684e-15 9.45684392,-1.77635684e-15 L0.638881203,-1.77635684e-15 C0.384103571,-1.77635684e-15 0.177661738,0.196113402 0.177661738,0.43814433 L0.177661738,16.5604536 C0.177661738,16.8024845 0.384103571,16.9985979 0.638881203,16.9985979 L12.4582757,16.9985979 C12.7130533,16.9985979 12.9194952,16.8024845 12.9194952,16.5604536 L12.9194952,3.28941237 C12.9194952,3.17304124 12.8709749,3.06192784 12.7844501,2.97973196 Z M9.24202982,9.13005712 L5.74198995,12.4259528 C5.21954594,12.9179288 4.36950506,12.917957 3.84700123,12.425981 C3.32458713,11.934005 3.32455721,11.1334806 3.84697131,10.6414764 L7.18464853,7.49847466 C7.37964524,7.31482164 7.69587552,7.31482164 7.89090214,7.49847466 C8.08592876,7.68209951 8.08592876,7.97988782 7.89090214,8.16354084 L4.55325484,11.3065426 C4.42023591,11.4318041 4.42023591,11.6356533 4.55325484,11.7608866 C4.68630367,11.8860918 4.9026875,11.8860918 5.03573634,11.7608866 L8.5357762,8.46499094 C8.99648173,8.03112476 8.99648173,7.32518733 8.5357762,6.89132115 C8.07492112,6.45739864 7.32529503,6.45751131 6.86464933,6.89132115 L4.07050413,9.52248869 C3.87550742,9.70614172 3.55927714,9.70614172 3.36425052,9.52248869 C3.16922389,9.33886384 3.16922389,9.04107554 3.36425052,8.85742251 L6.15839571,6.22625497 C7.00855624,5.42561793 8.3918992,5.42567427 9.24202982,6.22625497 C10.0921305,7.02683567 10.0921305,8.32950458 9.24202982,9.13005712 Z M9.3470066,3.63227491 C9.28483421,3.63227491 9.22561363,3.60896564 9.18170554,3.5672543 C9.13798193,3.52554296 9.11307608,3.46893471 9.11307608,3.41004811 L9.11344506,0.759099656 L12.1381223,3.63245017 L9.3470066,3.63227491 L9.3470066,3.63227491 Z" id="Shape"></path>
                    </g>
                </g>
            </g>
        </g>
    </g>
</svg>