<?xml version="1.0" encoding="UTF-8"?>
<svg width="12px" height="17px" viewBox="0 0 12 17" version="1.1" xmlns="http://www.w3.org/2000/svg" xmlns:xlink="http://www.w3.org/1999/xlink">
    <!-- Generator: Sketch 46 (44423) - http://www.bohemiancoding.com/sketch -->
    <title>008-voice-recording</title>
    <desc>Created with Sketch.</desc>
    <defs></defs>
    <g id="Page-1" stroke="none" stroke-width="1" fill="none" fill-rule="evenodd">
        <g id="Record-voice-button" transform="translate(-97.000000, -27.000000)" fill="#FFFFFF">
            <g id="Button" transform="translate(0.000000, 16.000000)">
                <g id="008-voice-recording" transform="translate(97.000000, 11.000000)">
                    <g id="Layer_1">
                        <path d="M11.9886196,8.29901559 C11.9886196,7.99338012 11.7448696,7.74573684 11.4441848,7.74573684 C11.1435,7.74573684 10.8998478,7.99338012 10.8998478,8.29901559 L10.8997826,8.29901559 C10.8993913,11.0426433 8.70332609,13.2778616 5.99996739,13.278425 C3.3003587,13.2778616 1.10054348,11.0463548 1.10015217,8.29901559 C1.10015217,7.99338012 0.856402174,7.74573684 0.555717391,7.74573684 C0.255032609,7.74573684 0.0113804348,7.99338012 0.0113804348,8.29901559 C0.012326087,11.4694327 2.40678261,14.0753372 5.45553261,14.3567485 L5.45553261,15.8603372 L3.82226087,15.8603372 C3.5216087,15.8603372 3.27782609,16.1079805 3.27782609,16.413616 C3.27782609,16.719152 3.52157609,16.9668947 3.82226087,16.9668947 L8.1776413,16.9668947 C8.47829348,16.9668947 8.72207609,16.7191852 8.72207609,16.413616 C8.72207609,16.1079805 8.47832609,15.8603372 8.1776413,15.8603372 L6.54436957,15.8603372 L6.54436957,14.3567485 C9.59315217,14.0753704 11.9876413,11.4694659 11.9886196,8.29901559 Z" id="Shape"></path>
                        <path d="M2.24416304,8.85226121 C2.51142391,10.7252768 4.08345652,12.1708733 5.99996739,12.1718012 C7.91647826,12.1708402 9.48847826,10.7252768 9.75577174,8.85226121 L2.24416304,8.85226121 Z" id="Shape"></path>
                        <path d="M8.06876087,5.53268811 L9.70203261,5.53268811 L9.70203261,4.42616374 L8.06876087,4.42616374 C7.7681087,4.42616374 7.52432609,4.17845419 7.52432609,3.87288499 C7.52432609,3.56724951 7.76807609,3.31960624 8.06876087,3.31960624 L9.6468587,3.31960624 C9.37963043,1.44652437 7.80759783,0.000894736842 5.89108696,0 C3.97457609,0.000894736842 2.40251087,1.44652437 2.13528261,3.31960624 L3.71338043,3.31960624 C4.01403261,3.31960624 4.25781522,3.56724951 4.25781522,3.87288499 C4.25781522,4.17842105 4.01406522,4.42616374 3.71338043,4.42616374 L2.0801087,4.42616374 L2.0801087,5.53268811 L3.71338043,5.53268811 C4.01403261,5.53268811 4.25781522,5.78033138 4.25781522,6.08596686 C4.25781522,6.39150292 4.01406522,6.63924561 3.71338043,6.63924561 L2.0801087,6.63924561 L2.0801087,7.74576998 L9.70203261,7.74576998 L9.70203261,6.63924561 L8.06876087,6.63924561 C7.7681087,6.63924561 7.52432609,6.39153606 7.52432609,6.08596686 C7.5243587,5.78033138 7.7681087,5.53268811 8.06876087,5.53268811 Z" id="Shape"></path>
                    </g>
                </g>
            </g>
        </g>
    </g>
</svg>