<?xml version="1.0" encoding="UTF-8"?>
<svg width="15px" height="15px" viewBox="0 0 15 15" version="1.1" xmlns="http://www.w3.org/2000/svg" xmlns:xlink="http://www.w3.org/1999/xlink">
    <!-- Generator: Sketch 46 (44423) - http://www.bohemiancoding.com/sketch -->
    <title>009-video-player</title>
    <desc>Created with Sketch.</desc>
    <defs></defs>
    <g id="Page-1" stroke="none" stroke-width="1" fill="none" fill-rule="evenodd">
        <g id="Send-Video-from-gallery" transform="translate(-56.000000, -29.000000)" fill="#FFFFFF">
            <g id="Button" transform="translate(0.000000, 16.000000)">
                <g id="009-video-player" transform="translate(56.000000, 13.000000)">
                    <g id="Capa_1">
                        <path d="M13.4571429,0 L1.51836735,0 C0.679591837,0 0,0.679591837 0,1.51836735 L0,13.4571429 C0,14.2959184 0.679591837,14.9755102 1.51836735,14.9755102 L13.4571429,14.9755102 C14.2959184,14.9755102 14.9755102,14.2959184 14.9755102,13.4571429 L14.9755102,1.52142857 C14.9785714,0.682653061 14.2959184,0 13.4571429,0 Z M9.20204082,1.46326531 L10.5030612,1.46326531 L10.5030612,2.76428571 L9.20204082,2.76428571 L9.20204082,1.46326531 Z M6.83877551,1.46326531 L8.13979592,1.46326531 L8.13979592,2.76428571 L6.83877551,2.76428571 L6.83877551,1.46326531 L6.83877551,1.46326531 Z M4.47244898,1.46326531 L5.77346939,1.46326531 L5.77346939,2.76428571 L4.47244898,2.76428571 L4.47244898,1.46326531 Z M3.40714286,13.5183673 L2.10612245,13.5183673 L2.10612245,12.2173469 L3.40714286,12.2173469 L3.40714286,13.5183673 Z M3.40714286,2.76428571 L2.10612245,2.76428571 L2.10612245,1.46326531 L3.40714286,1.46326531 L3.40714286,2.76428571 Z M5.77346939,13.5183673 L4.47244898,13.5183673 L4.47244898,12.2173469 L5.77346939,12.2173469 L5.77346939,13.5183673 Z M8.13673469,13.5183673 L6.83571429,13.5183673 L6.83571429,12.2173469 L8.13673469,12.2173469 L8.13673469,13.5183673 Z M10.5030612,13.5183673 L9.20204082,13.5183673 L9.20204082,12.2173469 L10.5030612,12.2173469 L10.5030612,13.5183673 Z M10.7908163,7.85816327 L5.79795918,10.7418367 C5.51632653,10.9040816 5.16122449,10.7020408 5.16122449,10.3744898 L5.16122449,4.60714286 C5.16122449,4.27959184 5.51632653,4.07755102 5.79795918,4.23979592 L10.7908163,7.12346939 C11.0755102,7.28571429 11.0755102,7.69591837 10.7908163,7.85816327 Z M12.8693878,13.5183673 L11.5683673,13.5183673 L11.5683673,12.2173469 L12.8693878,12.2173469 L12.8693878,13.5183673 Z M12.8693878,2.76428571 L11.5683673,2.76428571 L11.5683673,1.46326531 L12.8693878,1.46326531 L12.8693878,2.76428571 Z" id="Shape"></path>
                    </g>
                </g>
            </g>
        </g>
    </g>
</svg>