<?xml version="1.0" encoding="UTF-8"?>
<svg width="15px" height="14px" viewBox="0 0 15 14" version="1.1" xmlns="http://www.w3.org/2000/svg" xmlns:xlink="http://www.w3.org/1999/xlink">
    <!-- Generator: Sketch 46 (44423) - http://www.bohemiancoding.com/sketch -->
    <title>010-insert-picture-icon</title>
    <desc>Created with Sketch.</desc>
    <defs></defs>
    <g id="Page-1" stroke="none" stroke-width="1" fill="none" fill-rule="evenodd">
        <g id="Photo-input-button" transform="translate(-95.000000, -32.000000)" fill="#FFFFFF">
            <g id="Button" transform="translate(0.000000, 19.000000)">
                <g id="010-insert-picture-icon" transform="translate(95.000000, 13.000000)">
                    <g id="Capa_1">
                        <path d="M13.2922575,0.0174377224 L1.695,0.0174377224 C0.760183946,0.0174377224 0,0.772142349 0,1.70162278 L0,12.2868683 C0,13.2152527 0.760183946,13.9691601 1.695,13.9691601 L13.2922074,13.9691601 C14.2270234,13.9691601 14.9864047,13.2152527 14.9864047,12.2868683 L14.9864047,1.70162278 C14.9864548,0.772142349 14.2270736,0.0174377224 13.2922575,0.0174377224 Z M9.69100334,2.52214235 C10.5950167,2.52214235 11.3281605,3.25029181 11.3281605,4.14803559 C11.3281605,5.04577936 10.5949666,5.77392883 9.69100334,5.77392883 C8.78673913,5.77392883 8.05384615,5.04577936 8.05384615,4.14803559 C8.05384615,3.25029181 8.78673913,2.52214235 9.69100334,2.52214235 Z M12.7606856,12.4131174 L7.49307692,12.4131174 L2.4601505,12.4131174 C2.00799331,12.4131174 1.80662207,12.0882278 2.01045151,11.6874093 L4.82011706,6.16064769 C5.02369565,5.759879 5.41168896,5.72410676 5.68645485,6.08068327 L8.51167224,9.7473879 C8.78643813,10.1040142 9.26668896,10.1343559 9.58454849,9.81484698 L10.2757023,9.11977936 C10.593311,8.80027046 11.0612709,8.83982918 11.3204849,9.20756584 L13.1102007,11.7464484 C13.368913,12.1147331 13.2128428,12.4131174 12.7606856,12.4131174 Z" id="Shape"></path>
                    </g>
                </g>
            </g>
        </g>
    </g>
</svg>